<svg width="123" height="154" viewBox="0 0 123 154" fill="none" xmlns="http://www.w3.org/2000/svg">
<path d="M120.639 0.0329057C121.725 -0.166636 122.768 0.552301 122.967 1.6387C123.167 2.72509 122.448 3.76755 121.361 3.96709L120.639 0.0329057ZM19.1693 153.114C18.5541 154.031 17.3117 154.276 16.3943 153.661L1.44435 143.636C0.52695 143.021 0.281947 141.779 0.897128 140.861C1.51231 139.944 2.75471 139.699 3.67211 140.314L16.961 149.225L25.872 135.936C26.4872 135.019 27.7296 134.774 28.647 135.389C29.5644 136.004 29.8094 137.247 29.1942 138.164L19.1693 153.114ZM121.361 3.96709C48.9725 17.263 6.17497 84.1919 19.4704 151.613L15.546 152.387C1.82503 82.808 46.0275 13.737 120.639 0.0329057L121.361 3.96709Z" fill="#DCD2F8"/>
</svg>
