<svg width="59" height="154" viewBox="0 0 59 154" fill="none" xmlns="http://www.w3.org/2000/svg">
<path d="M56.0853 0.221434C57.0676 -0.283749 58.2734 0.10301 58.7786 1.08528C59.2837 2.06756 58.897 3.27338 57.9147 3.77857L56.0853 0.221434ZM21.5808 152.731C21.1771 153.759 20.0164 154.265 18.9882 153.862L2.23356 147.283C1.20541 146.879 0.699202 145.718 1.10291 144.69C1.50663 143.662 2.66738 143.156 3.69553 143.56L18.5886 149.407L24.4364 134.514C24.8401 133.486 26.0009 132.98 27.029 133.384C28.0572 133.787 28.5634 134.948 28.1597 135.976L21.5808 152.731ZM57.9147 3.77857C34.7987 15.6671 20.2301 39.9148 14.1911 67.6751C8.15477 95.4228 10.7221 126.366 21.5525 151.201L17.886 152.799C6.69311 127.134 4.08203 95.3272 10.2825 66.8249C16.4802 38.3352 31.5637 12.8329 56.0853 0.221434L57.9147 3.77857Z" fill="#DCD2F8"/>
</svg>
