<svg width="121" height="90" viewBox="0 0 121 90" fill="none" xmlns="http://www.w3.org/2000/svg">
<path d="M2 0C0.895432 -7.15256e-07 7.15256e-07 0.895429 0 2C-7.15256e-07 3.10457 0.895429 4 2 4L2 0ZM104.586 89.4142C105.367 90.1953 106.633 90.1953 107.414 89.4142L120.142 76.6863C120.923 75.9052 120.923 74.6389 120.142 73.8579C119.361 73.0768 118.095 73.0768 117.314 73.8579L106 85.1716L94.6863 73.8579C93.9052 73.0768 92.6389 73.0768 91.8579 73.8579C91.0768 74.6389 91.0768 75.9052 91.8579 76.6863L104.586 89.4142ZM2 4C31.0115 4.00002 56.5303 10.158 74.7466 23.6597C92.869 37.0918 104 57.9641 104 88H108C108 56.8436 96.381 34.7159 77.1284 20.4461C57.9697 6.2459 31.4885 1.81198e-05 2 0L2 4Z" fill="#DCD2F8"/>
</svg>
