<svg width="100" height="104" viewBox="0 0 100 104" fill="none" xmlns="http://www.w3.org/2000/svg">
<path d="M2 0C0.89543 0 0 0.89543 0 2C0 3.10457 0.89543 4 2 4V0ZM80.8133 103.031C81.3826 103.977 82.6114 104.283 83.558 103.714L98.9833 94.437C99.9298 93.8678 100.236 92.6389 99.6664 91.6924C99.0971 90.7458 97.8683 90.4399 96.9217 91.0092L83.2104 99.2553L74.9643 85.5439C74.395 84.5974 73.1661 84.2915 72.2196 84.8608C71.273 85.4301 70.9671 86.6589 71.5364 87.6055L80.8133 103.031ZM2 4C51.5757 4 93.6529 49.0205 80.5864 101.517L84.468 102.483C98.2439 47.1363 53.8289 0 2 0V4Z" fill="#DCD2F8"/>
</svg>
