<svg width="59" height="27" viewBox="0 0 59 27" fill="none" xmlns="http://www.w3.org/2000/svg">
<path d="M6.98448 14.405L4.36488 17.0954V21.3198H1.29688V4.79979H4.36488V13.2722L12.5305 4.79979H15.9761L9.03768 12.1866L16.4009 21.3198H12.8137L6.98448 14.405Z" fill="#17171A"/>
<path d="M17.7346 3.80859H20.6846V21.3198H17.7346V3.80859Z" fill="#17171A"/>
<path d="M28.1909 8.57579C30.0475 8.57579 31.4635 9.02419 32.4389 9.92099C33.4301 10.8021 33.9257 12.1394 33.9257 13.933V21.3198H31.1409V19.7858C30.7791 20.3365 30.2599 20.7613 29.5833 21.0602C28.9225 21.3434 28.1201 21.485 27.1761 21.485C26.2321 21.485 25.4061 21.3277 24.6981 21.013C23.9901 20.6826 23.4395 20.2342 23.0461 19.6678C22.6685 19.0857 22.4797 18.4327 22.4797 17.709C22.4797 16.5762 22.8967 15.6715 23.7305 14.995C24.5801 14.3027 25.9096 13.9566 27.7189 13.9566H30.9757V13.7678C30.9757 12.8867 30.7083 12.2102 30.1733 11.7382C29.6541 11.2662 28.8753 11.0302 27.8369 11.0302C27.1289 11.0302 26.4288 11.1403 25.7365 11.3606C25.06 11.5809 24.4857 11.8877 24.0137 12.281L22.8573 10.1334C23.5181 9.62993 24.3127 9.24446 25.2409 8.97699C26.1692 8.70953 27.1525 8.57579 28.1909 8.57579ZM27.7897 19.3374C28.5292 19.3374 29.1821 19.1722 29.7485 18.8418C30.3307 18.4957 30.7397 18.0079 30.9757 17.3786V15.9154H27.9313C26.2321 15.9154 25.3825 16.4739 25.3825 17.591C25.3825 18.1259 25.5949 18.5507 26.0197 18.8654C26.4445 19.1801 27.0345 19.3374 27.7897 19.3374Z" fill="#17171A"/>
<path d="M38.8681 10.5582C39.7177 9.23659 41.2123 8.57579 43.3521 8.57579V11.3842C43.1003 11.337 42.8722 11.3134 42.6677 11.3134C41.5191 11.3134 40.6223 11.6517 39.9773 12.3282C39.3322 12.989 39.0097 13.9487 39.0097 15.2074V21.3198H36.0597V8.71739H38.8681V10.5582Z" fill="#17171A"/>
<path d="M58.1155 8.71739L52.2155 22.3346C51.6649 23.7034 50.9962 24.6631 50.2095 25.2138C49.4229 25.7802 48.471 26.0634 47.3539 26.0634C46.7246 26.0634 46.1031 25.9611 45.4895 25.7566C44.8759 25.5521 44.3725 25.2689 43.9791 24.907L45.1591 22.7358C45.4423 23.0033 45.7727 23.2157 46.1503 23.373C46.5437 23.5303 46.937 23.609 47.3303 23.609C47.8495 23.609 48.2743 23.4753 48.6047 23.2078C48.9509 22.9403 49.2655 22.4919 49.5487 21.8626L49.7611 21.367L44.2623 8.71739H47.3303L51.2951 18.0394L55.2835 8.71739H58.1155Z" fill="#17171A"/>
</svg>
