<svg width="60" height="24" viewBox="0 0 60 24" fill="none" xmlns="http://www.w3.org/2000/svg">
<path d="M6.10961 11.3735L3.35681 14.2007V18.6399H0.132812V1.27988H3.35681V10.1831L11.9376 1.27988H15.5584L8.26721 9.04228L16.0048 18.6399H12.2352L6.10961 11.3735Z" fill="#17171A"/>
<path d="M17.4064 0.238281H20.5064V18.6399H17.4064V0.238281Z" fill="#17171A"/>
<path d="M28.3944 5.24788C30.3453 5.24788 31.8333 5.71908 32.8583 6.66148C33.8999 7.58735 34.4208 8.99268 34.4208 10.8775V18.6399H31.4944V17.0279C31.1141 17.6066 30.5685 18.0529 29.8576 18.3671C29.1632 18.6647 28.32 18.8135 27.328 18.8135C26.336 18.8135 25.4679 18.6481 24.7239 18.3175C23.9799 17.9703 23.4013 17.4991 22.9879 16.9039C22.5911 16.2921 22.3927 15.606 22.3927 14.8455C22.3927 13.6551 22.8309 12.7044 23.7071 11.9935C24.6 11.266 25.997 10.9023 27.8983 10.9023H31.3207V10.7039C31.3207 9.77802 31.0397 9.06708 30.4776 8.57108C29.932 8.07508 29.1136 7.82708 28.0224 7.82708C27.2784 7.82708 26.5426 7.94281 25.8152 8.17428C25.1042 8.40575 24.5007 8.72815 24.0047 9.14148L22.7896 6.88468C23.4839 6.35561 24.3189 5.95055 25.2943 5.66948C26.2698 5.38841 27.3032 5.24788 28.3944 5.24788ZM27.9728 16.5567C28.7498 16.5567 29.4359 16.3831 30.0311 16.0359C30.6429 15.6721 31.0728 15.1596 31.3207 14.4983V12.9607H28.1215C26.3359 12.9607 25.4431 13.5476 25.4431 14.7215C25.4431 15.2836 25.6664 15.73 26.1128 16.0607C26.5592 16.3913 27.1792 16.5567 27.9728 16.5567Z" fill="#17171A"/>
<path d="M39.6144 7.33108C40.5072 5.94228 42.0779 5.24788 44.3264 5.24788V8.19908C44.0619 8.14948 43.8221 8.12468 43.6072 8.12468C42.4003 8.12468 41.4579 8.48015 40.78 9.19108C40.1021 9.88548 39.7632 10.894 39.7632 12.2167V18.6399H36.6632V5.39668H39.6144V7.33108Z" fill="#17171A"/>
<path d="M59.8406 5.39668L53.6406 19.7063C53.0619 21.1447 52.3592 22.1532 51.5326 22.7319C50.7059 23.3271 49.7056 23.6247 48.5318 23.6247C47.8704 23.6247 47.2174 23.5172 46.5726 23.3023C45.9278 23.0873 45.3987 22.7897 44.9854 22.4095L46.2254 20.1279C46.523 20.4089 46.8702 20.6321 47.267 20.7975C47.6803 20.9628 48.0936 21.0455 48.507 21.0455C49.0526 21.0455 49.499 20.9049 49.8462 20.6239C50.2099 20.3428 50.5406 19.8716 50.8382 19.2103L51.0614 18.6895L45.283 5.39668H48.507L52.6734 15.1927L56.8646 5.39668H59.8406Z" fill="#17171A"/>
</svg>
