<svg width="22" height="18" viewBox="0 0 22 18" fill="none" xmlns="http://www.w3.org/2000/svg">
<path d="M6.90251 17.9441C15.2099 17.9441 19.7522 11.0603 19.7522 5.0944C19.7522 4.89772 19.7522 4.70105 19.7429 4.51373C20.6232 3.87686 21.3912 3.08078 22 2.17231C21.1946 2.52821 20.3235 2.77171 19.4057 2.8841C20.3423 2.32216 21.0541 1.44179 21.3912 0.383463C20.5202 0.898576 19.5556 1.2732 18.5253 1.47925C17.7011 0.598874 16.5304 0.0556641 15.2286 0.0556641C12.7373 0.0556641 10.7143 2.07865 10.7143 4.56992C10.7143 4.92582 10.7518 5.27235 10.8361 5.60015C7.08046 5.41284 3.75564 3.61463 1.52661 0.879845C1.14261 1.54481 0.917838 2.32216 0.917838 3.14634C0.917838 4.71041 1.71392 6.09653 2.93146 6.90198C2.19157 6.88325 1.49851 6.6772 0.88974 6.34004C0.88974 6.35877 0.88974 6.3775 0.88974 6.39623C0.88974 8.5878 2.44444 10.4047 4.51426 10.8262C4.13963 10.9292 3.73691 10.9854 3.32482 10.9854C3.03448 10.9854 2.75351 10.9573 2.47254 10.9011C3.04385 12.6993 4.71094 14.0012 6.6871 14.0386C5.14176 15.2468 3.1937 15.968 1.07705 15.968C0.711792 15.968 0.355896 15.9492 0 15.9024C1.97616 17.1949 4.35504 17.9441 6.90251 17.9441Z" fill="#511FDC"/>
</svg>
